<?xml version="1.0" standalone="no"?>
<!DOCTYPE svg PUBLIC "-//W3C//DTD SVG 20010904//EN"
 "http://www.w3.org/TR/2001/REC-SVG-20010904/DTD/svg10.dtd">
<svg version="1.0" xmlns="http://www.w3.org/2000/svg"
 width="700.000000pt" height="700.000000pt" viewBox="0 0 700.000000 700.000000"
 preserveAspectRatio="xMidYMid meet">
<metadata>
Created by potrace 1.11, written by Peter Selinger 2001-2013
</metadata>
<g transform="translate(0.000000,700.000000) scale(0.100000,-0.100000)"
fill="#000000" stroke="none">
<path d="M2067 5544 c-1 -1 -60 -4 -132 -7 -71 -4 -139 -8 -150 -10 -11 -3
-42 -8 -68 -11 -130 -19 -314 -70 -442 -123 -83 -34 -279 -134 -283 -144 -2
-5 -8 -9 -14 -9 -6 0 -47 -25 -92 -57 -277 -193 -492 -434 -647 -728 -129
-244 -197 -467 -228 -747 -14 -119 -5 -440 14 -524 3 -12 7 -39 10 -60 11 -72
64 -259 101 -354 153 -398 420 -728 789 -978 204 -138 525 -265 763 -302 37
-6 78 -13 92 -17 42 -9 445 -12 486 -3 22 4 62 11 89 14 41 4 118 20 205 41
41 10 189 58 217 71 17 8 34 14 37 14 7 0 201 95 251 123 46 25 181 116 215
144 62 49 110 92 162 141 l57 55 58 -56 c141 -135 306 -250 493 -343 210 -104
357 -150 640 -200 19 -3 123 -7 230 -9 280 -5 440 19 700 105 439 146 845 475
1089 881 119 200 226 479 257 674 3 20 8 47 10 59 19 95 25 412 11 548 -37
358 -194 735 -434 1043 -77 97 -273 288 -371 360 -272 199 -598 337 -901 381
-25 4 -55 8 -66 10 -71 13 -379 16 -1683 18 -805 0 -1464 0 -1465 0z m3088
-600 c665 -93 1173 -615 1253 -1289 13 -105 6 -314 -14 -406 -2 -13 -9 -46
-14 -72 -17 -86 -69 -230 -121 -332 -88 -176 -228 -351 -382 -475 -80 -65 -70
-58 -157 -112 -318 -197 -718 -262 -1093 -178 -78 17 -230 71 -302 107 -70 35
-185 102 -195 112 -3 4 -32 26 -64 51 -69 52 -186 165 -238 230 l-37 45 -290
0 -291 0 -47 -55 c-57 -67 -156 -165 -207 -205 -44 -34 -167 -120 -181 -126
-6 -2 -39 -20 -75 -38 -91 -49 -269 -113 -349 -126 -211 -36 -405 -40 -566
-10 -238 43 -488 160 -680 317 -72 60 -188 186 -252 275 -116 163 -220 407
-248 588 -51 325 -6 628 135 910 146 290 400 536 690 668 104 47 259 99 295
98 2 0 19 4 36 9 17 5 61 12 98 16 36 3 68 7 69 9 2 2 707 3 1565 3 1279 0
1580 -3 1662 -14z"/>
<path d="M1750 4083 l0 -293 -292 -2 -292 -3 0 -288 -1 -287 293 0 292 0 0
-290 c0 -159 3 -291 8 -291 4 -1 134 -2 289 -3 274 -1 282 0 285 19 2 11 3
143 3 293 l-1 272 291 0 291 0 0 290 0 290 -291 0 -291 0 1 278 c0 152 -1 284
-3 292 -3 13 -43 15 -293 15 l-289 0 0 -292z"/>
<path d="M5355 4372 c-211 -22 -379 -192 -392 -400 -6 -91 14 -182 54 -252 35
-59 117 -139 171 -167 93 -48 220 -65 312 -40 123 32 239 128 292 242 28 62
33 81 35 168 2 84 -1 108 -23 165 -27 73 -59 121 -113 170 -92 84 -216 127
-336 114z"/>
<path d="M4409 3485 c-176 -46 -311 -207 -323 -387 -19 -293 237 -520 521
-462 166 34 300 163 338 327 34 146 -10 302 -115 406 -113 112 -269 155 -421
116z"/>
</g>
</svg>
